<svg width="23" height="26" viewBox="0 0 23 26" fill="none" xmlns="http://www.w3.org/2000/svg">
<path d="M20.0196 4.00168C19.7611 4.01372 19.5177 4.08901 19.3013 4.17333H19.2983C19.0789 4.26066 18.036 4.70033 16.4521 5.36586C14.8682 6.03441 12.8124 6.9017 10.7717 7.76298C6.6963 9.48251 2.68999 11.1749 2.68999 11.1749L2.73808 11.1569C2.73808 11.1569 2.46158 11.2472 2.17305 11.446C2.02578 11.5423 1.86349 11.6749 1.72223 11.8826C1.58097 12.0904 1.46676 12.4096 1.50884 12.7379C1.57797 13.295 1.93863 13.6293 2.1971 13.813C2.45857 13.9997 2.70803 14.087 2.70803 14.087H2.71404L6.47089 15.3548C6.63919 15.8969 7.61597 19.1131 7.8504 19.8539C7.98865 20.2966 8.1239 20.5737 8.29221 20.7845C8.37335 20.8929 8.46953 20.9832 8.58374 21.0555C8.62882 21.0826 8.67691 21.1037 8.725 21.1218C8.74002 21.1308 8.75505 21.1338 8.77308 21.1368L8.73401 21.1278C8.74603 21.1308 8.75505 21.1398 8.76407 21.1428C8.79412 21.1519 8.81516 21.1549 8.85423 21.1609C9.44932 21.3416 9.92719 20.9712 9.92719 20.9712L9.95424 20.9501L12.1723 18.9264L15.8901 21.7843L15.9742 21.8204C16.7496 22.1607 17.5341 21.971 17.9488 21.6367C18.3666 21.2994 18.5289 20.8688 18.5289 20.8688L18.5559 20.7995L21.4292 6.05247C21.5103 5.68809 21.5313 5.34779 21.4412 5.01654C21.351 4.68528 21.1196 4.3751 20.8401 4.20947C20.5576 4.04083 20.2781 3.98963 20.0196 4.00168ZM19.9414 5.58269C19.9384 5.63087 19.9475 5.62485 19.9264 5.7182V5.72724L17.0802 20.3207C17.0682 20.3418 17.0472 20.387 16.9901 20.4321C16.93 20.4803 16.8819 20.5104 16.6324 20.4111L12.0851 16.9178L9.33811 19.4263L9.91516 15.7343C9.91516 15.7343 17.0382 9.08199 17.3447 8.7959C17.6513 8.50982 17.5491 8.44959 17.5491 8.44959C17.5701 8.10026 17.0862 8.3472 17.0862 8.3472L7.71816 14.1623L7.71515 14.1473L3.22497 12.6325V12.6295C3.22196 12.6295 3.21595 12.6265 3.21295 12.6265C3.21595 12.6265 3.23699 12.6174 3.23699 12.6174L3.26104 12.6054L3.28508 12.5964C3.28508 12.5964 7.29439 10.9039 11.3698 9.18438C13.4105 8.32311 15.4663 7.45581 17.0472 6.78727C18.628 6.12174 19.7972 5.63388 19.8633 5.60678C19.9264 5.58269 19.8964 5.58269 19.9414 5.58269Z" fill="#A6A6A6"/>
</svg>
