<svg width="21" height="26" viewBox="0 0 21 26" fill="none" xmlns="http://www.w3.org/2000/svg">
<g clip-path="url(#clip0_51348_18)">
<path fill-rule="evenodd" clip-rule="evenodd" d="M20.0395 7.80526C20.1802 7.33158 20.0395 7 19.383 7H17.1946C16.6318 7 16.3817 7.3 16.241 7.63158C16.241 7.63158 15.1312 10.3789 13.5524 12.1474C13.0366 12.6684 12.8177 12.8263 12.5363 12.8263C12.3957 12.8263 12.1924 12.6684 12.1924 12.1947V7.80526C12.1924 7.23684 12.0361 7 11.5672 7H8.12823C7.78433 7 7.56549 7.26842 7.56549 7.50526C7.56549 8.0421 8.34707 8.16842 8.44086 9.65263V12.9053C8.44086 13.6158 8.31581 13.7421 8.03444 13.7421C7.29975 13.7421 5.48648 10.9947 4.42353 7.83684C4.20469 7.25263 4.00148 7 3.43874 7H1.25032C0.625053 7 0.5 7.3 0.5 7.63158C0.5 8.21579 1.23469 11.1211 3.95459 14.9579C5.76785 17.5789 8.31581 19 10.6293 19C12.0205 19 12.1924 18.6842 12.1924 18.1474V16.1579C12.1924 15.5263 12.3175 15.4 12.7708 15.4C13.0991 15.4 13.6462 15.5579 14.9436 16.8211C16.4286 18.3211 16.6787 19 17.5072 19H19.6956C20.3209 19 20.6335 18.6842 20.4459 18.0684C20.2427 17.4526 19.5393 16.5526 18.6014 15.4789C18.0856 14.8632 17.3196 14.2158 17.1008 13.8842C16.7725 13.4579 16.8663 13.2684 17.1008 12.9053C17.1008 12.8895 19.7738 9.1 20.0395 7.80526Z" fill="#A6A6A6"/>
</g>
<defs>
<clipPath id="clip0_51348_18">
<rect width="20" height="26" fill="white" transform="translate(0.5)"/>
</clipPath>
</defs>
</svg>
